#!OML:ASF H:\ManfredObstacles\Project 1\Capture day 2\Session 1\male.ASF
:FULLY-SPECIFIED
:DEGREES
291
root 1.94624 15.3109 2.24808 -162.597 -0.500827 177.84
lowerback -3.33008 1.35194 -3.17937
upperback -0.554294 1.88472 -1.47159
thorax 1.24324 0.908303 0.352033
lowerneck -42.017 -1.15579 -0.871905
upperneck 38.0668 -3.72926 2.42339
head 24.1983 -1.37784 0.189819
rclavicle -4.67144e-015 -9.44227e-015
rhumerus -26.1361 7.20927 -91.5383
rradius 53.1733
rwrist 18.028
rhand -1.71928 -6.9853
rfingers 7.12502
rthumb 23.9426 -35.5125
lclavicle -4.67144e-015 -9.44227e-015
lhumerus -31.3373 -15.5672 90.7384
lradius 51.5791
lwrist -29.0102
lhand -0.468432 6.15188
lfingers 7.12502
lthumb 25.1416 34.5163
rfemur -19.0042 9.16971 21.2596
rtibia 34.405
rfoot -33.6933 -28.0906
rtoes -18.4169
lfemur -28.0589 -10.7349 -22.7787
ltibia 44.5736
lfoot -4.99106 36.3392
ltoes -10.7398
292
root 1.94146 15.2927 2.19083 -162.44 -0.436982 178.035
lowerback -3.20222 1.44558 -3.03959
upperback -0.610971 1.99919 -1.43136
thorax 1.11361 0.969152 0.31546
lowerneck -42.2523 -1.22559 -0.889935
upperneck 37.9113 -3.76514 2.43048
head 24.1364 -1.3752 0.19049
rclavicle -2.75068e-014 7.35503e-015
rhumerus -25.8377 7.98018 -91.7453
rradius 54.2745
rwrist 18.0324
rhand -1.70951 -6.84007
rfingers 7.12502
rthumb 23.952 -35.366
lclavicle -2.75068e-014 7.35503e-015
lhumerus -31.8675 -16.7609 90.9718
lradius 53.1278
lwrist -28.5659
lhand -0.578454 6.0453
lfingers 7.12502
lthumb 25.0362 34.4245
rfemur -18.8979 9.08318 21.449
rtibia 34.3392
rfoot -33.7445 -28.0976
rtoes -18.3853
lfemur -28.4012 -10.4181 -22.6772
ltibia 45.3724
lfoot -4.73279 36.4974
ltoes -10.7946
293
root 1.93723 15.274 2.12902 -162.305 -0.361708 178.22
lowerback -3.08537 1.5379 -2.94217
upperback -0.663244 2.11414 -1.38603
thorax 0.993313 1.02967 0.307568
lowerneck -42.4808 -1.28558 -0.899556
upperneck 37.7665 -3.79725 2.43866
head 24.0818 -1.37091 0.191028
rclavicle 3.9583e-014 -2.27608e-014
rhumerus -25.5677 8.75928 -91.931
rradius 55.343
rwrist 17.9814
rhand -1.75073 -6.75961
rfingers 7.12502
rthumb 23.9125 -35.2908
lclavicle 3.9583e-014 -2.27608e-014
lhumerus -32.4209 -17.9027 91.1916
lradius 54.622
lwrist -28.1743
lhand -0.718 5.92546
lfingers 7.12502
lthumb 24.9025 34.3232
rfemur -18.7469 9.02144 21.6334
rtibia 34.2626
rfoot -33.7464 -28.1114
rtoes -18.2652
lfemur -28.6881 -10.0666 -22.598
ltibia 46.1346
lfoot -4.54792 36.5452
ltoes -10.782
294
root 1.93394 15.255 2.06228 -162.166 -0.245757 178.403
lowerback -3.00904 1.64051 -2.8928
upperback -0.71892 2.24556 -1.33822
thorax 0.890018 1.09776 0.330236
lowerneck -42.6616 -1.34536 -0.917288
upperneck 37.6214 -3.83772 2.46557
head 24.0138 -1.36999 0.20055
rclavicle 2.48481e-015 1.96797e-014
rhumerus -25.326 9.5444 -92.0971
rradius 56.36
rwrist 17.847
rhand -1.86311 -6.71762
rfingers 7.12502
rthumb 23.8047 -35.2629
lclavicle 2.48481e-015 1.96797e-014
lhumerus -33.0015 -19.0191 91.4048
lradius 56.0696
lwrist -27.777
lhand -0.877029 5.81485
lfingers 7.12502
lthumb 24.7501 34.2336
rfemur -18.5837 8.99892 21.8077
rtibia 34.1802
rfoot -33.694 -28.1031
rtoes -18.0524
lfemur -28.9306 -9.6699 -22.5353
ltibia 46.8448
lfoot -4.44973 36.4926
ltoes -10.6982
295
root 1.93105 15.236 1.99066 -162.024 -0.107849 178.555
lowerback -2.96833 1.74614 -2.90525
upperback -0.780218 2.38333 -1.29711
thorax 0.798434 1.16833 0.381303
lowerneck -42.8165 -1.4184 -0.965123
upperneck 37.4956 -3.90118 2.52354
head 23.9592 -1.3792 0.225002
rclavicle -1.2424e-015 1.20265e-014
rhumerus -25.1259 10.3169 -92.2392
rradius 57.3269
rwrist 17.6596
rhand -2.05207 -6.67967
rfingers 7.12502
rthumb 23.6234 -35.2484
lclavicle -1.2424e-015 1.20265e-014
lhumerus -33.6074 -20.1151 91.6177
lradius 57.4747
lwrist -27.3537
lhand -1.02176 5.72741
lfingers 7.12502
lthumb 24.6113 34.1652
rfemur -18.4107 8.99723 21.9442
rtibia 34.1027
rfoot -33.6087 -28.0839
rtoes -17.7532
lfemur -29.1217 -9.25659 -22.5164
ltibia 47.4882
lfoot -4.41514 36.3354
ltoes -10.5449
296
root 1.92842 15.2167 1.9142 -161.88 0.0390588 178.667
lowerback -2.96881 1.85095 -2.97358
upperback -0.834839 2.52266 -1.27265
thorax 0.734715 1.23883 0.447756
lowerneck -42.9758 -1.5105 -1.03765
upperneck 37.3861 -4.00299 2.62185
head 23.9255 -1.40012 0.263878
rclavicle 1.0461e-014 -1.30204e-014
rhumerus -24.9656 11.0547 -92.3657
rradius 58.2603
rwrist 17.3854
rhand -2.27379 -6.63296
rfingers 7.12502
rthumb 23.4108 -35.229
lclavicle 1.0461e-014 -1.30204e-014
lhumerus -34.2002 -21.2119 91.8091
lradius 58.8206
lwrist -26.9075
lhand -1.14451 5.66446
lfingers 7.12502
lthumb 24.4937 34.1182
rfemur -18.2237 9.00377 22.0392
rtibia 34.0367
rfoot -33.493 -28.0581
rtoes -17.3727
lfemur -29.2508 -8.84355 -22.5458
ltibia 48.0589
lfoot -4.46042 36.0915
ltoes -10.3193
297
root 1.9259 15.197 1.83301 -161.738 0.187632 178.736
lowerback -2.99882 1.95129 -3.09965
upperback -0.889458 2.65799 -1.26408
thorax 0.685237 1.30671 0.530842
lowerneck -43.1428 -1.61617 -1.12147
upperneck 37.2758 -4.13228 2.74721
head 23.8976 -1.428 0.311005
rclavicle 5.22058e-014 -3.42904e-014
rhumerus -24.8597 11.7203 -92.4612
rradius 59.1595
rwrist 17.2303
rhand -2.43846 -6.53606
rfingers 7.12502
rthumb 23.2528 -35.1521
lclavicle 5.22058e-014 -3.42904e-014
lhumerus -34.8017 -22.3009 91.9872
lradius 60.1172
lwrist -26.4132
lhand -1.22739 5.61643
lfingers 7.12502
lthumb 24.4142 34.0809
rfemur -18.0226 9.02809 22.0891
rtibia 33.9921
rfoot -33.3653 -28.0378
rtoes -16.9273
lfemur -29.3099 -8.44637 -22.6257
ltibia 48.5547
lfoot -4.5412 35.7869
ltoes -10.0566
298
root 1.9232 15.1767 1.74712 -161.608 0.31127 178.758
lowerback -3.05103 1.9754 -3.26101
upperback -0.938172 2.79316 -1.27839
thorax 0.655377 1.41702 0.611807
lowerneck -43.3065 -1.73553 -1.19593
upperneck 37.1459 -4.29646 2.89026
head 23.8545 -1.46306 0.355048
rclavicle -7.05686e-015 -1.44119e-014
rhumerus -24.8096 12.2949 -92.537
rradius 60.0401
rwrist 17.2094
rhand -2.54333 -6.39664
rfingers 7.12502
rthumb 23.1522 -35.0254
lclavicle -7.05686e-015 -1.44119e-014
lhumerus -35.3956 -23.3922 92.1374
lradius 61.3543
lwrist -25.8904
lhand -1.29915 5.54746
lfingers 7.12502
lthumb 24.3454 34.0212
rfemur -17.7915 9.06081 22.0991
rtibia 33.9699
rfoot -33.2395 -28.0431
rtoes -16.4414
lfemur -29.2911 -8.08489 -22.7529
ltibia 48.98
lfoot -4.66436 35.439
ltoes -9.76528
299
root 1.92032 15.1554 1.65737 -161.503 0.404099 178.733
lowerback -3.10416 2.04156 -3.46399
upperback -0.975193 2.89257 -1.31398
thorax 0.635546 1.46879 0.692614
lowerneck -43.2996 -1.81497 -1.12625
upperneck 37.7499 -4.46342 2.96268
head 22.8941 -1.48995 0.383955
rclavicle -9.81499e-015 2.51463e-014
rhumerus -24.823 12.7921 -92.6012
rradius 60.9219
rwrist 17.2918
rhand -2.57385 -6.24443
rfingers 7.12502
rthumb 23.1229 -34.8768
lclavicle -9.81499e-015 2.51463e-014
lhumerus -35.9878 -24.4629 92.2597
lradius 62.5345
lwrist -25.368
lhand -1.35773 5.46782
lfingers 7.12502
lthumb 24.2893 33.9491
rfemur -17.5218 9.11136 22.0734
rtibia 33.9728
rfoot -33.1114 -28.0819
rtoes -15.9361
lfemur -29.1897 -7.76745 -22.9236
ltibia 49.3428
lfoot -4.8365 35.0841
ltoes -9.54688
300
root 1.91698 15.133 1.56351 -161.427 0.461785 178.682
lowerback -3.15373 2.08909 -3.67397
upperback -1.0078 2.96845 -1.36784
thorax 0.619241 1.50909 0.75782
lowerneck -43.3964 -1.95415 -1.19129
upperneck 37.582 -4.69181 3.15598
head 22.8116 -1.53957 0.435168
rclavicle 6.31141e-015 -3.29983e-014
rhumerus -24.903 13.2152 -92.6686
rradius 61.7816
rwrist 17.4368
rhand -2.60628 -6.04904
rfingers 7.12502
rthumb 23.0918 -34.6853
lclavicle 6.31141e-015 -3.29983e-014
lhumerus -36.5964 -25.514 92.3554
lradius 63.6627
lwrist -24.8803
lhand -1.4353 5.34619
lfingers 7.12502
lthumb 24.2149 33.8374
rfemur -17.2053 9.1742 22.035
rtibia 33.9986
rfoot -32.9872 -28.1428
rtoes -15.4056
lfemur -29.0061 -7.49218 -23.114
ltibia 49.6552
lfoot -5.04295 34.7539
ltoes -9.41622
301
root 1.91298 15.1095 1.46643 -161.38 0.471937 178.611
lowerback -3.1911 2.11181 -3.88177
upperback -1.03633 3.01149 -1.43166
thorax 0.601945 1.53324 0.810149
lowerneck -43.4276 -2.10485 -1.2766
upperneck 37.3964 -4.94775 3.39186
head 22.7083 -1.59766 0.503758
rclavicle -5.81445e-015 -1.15295e-014
rhumerus -25.0572 13.5956 -92.74
rradius 62.6408
rwrist 17.564
rhand -2.62057 -5.8723
rfingers 7.12502
rthumb 23.0781 -34.5103
lclavicle -5.81445e-015 -1.15295e-014
lhumerus -37.2204 -26.5249 92.4322
lradius 64.7423
lwrist -24.4251
lhand -1.53956 5.1948
lfingers 7.12502
lthumb 24.1149 33.6993
rfemur -16.8473 9.23859 21.9945
rtibia 34.0537
rfoot -32.8587 -28.2235
rtoes -14.8611
lfemur -28.7548 -7.26574 -23.312
ltibia 49.9291
lfoot -5.27643 34.4721
ltoes -9.44099
302
root 1.90879 15.0851 1.36653 -161.348 0.460889 178.548
lowerback -3.24048 2.12057 -4.07716
upperback -1.05516 3.03663 -1.49499
thorax 0.602531 1.54806 0.856283
lowerneck -43.2574 -2.21559 -1.25631
upperneck 37.4607 -5.18303 3.57184
head 22.151 -1.64777 0.560252
rclavicle 1.63003e-014 -3.1408e-014
rhumerus -25.2724 13.9404 -92.8142
rradius 63.4963
rwrist 17.6153
rhand -2.67008 -5.71774
rfingers 7.12502
rthumb 23.0306 -34.3617
lclavicle 1.63003e-014 -3.1408e-014
lhumerus -37.8353 -27.4972 92.489
lradius 65.7758
lwrist -24.0037
lhand -1.64167 5.0404
lfingers 7.12502
lthumb 24.017 33.5578
rfemur -16.4771 9.31805 21.9719
rtibia 34.1501
rfoot -32.7078 -28.3036
rtoes -14.3113
lfemur -28.4593 -7.05161 -23.4917
ltibia 50.1763
lfoot -5.51562 34.2552
ltoes -9.63113
303
root 1.90409 15.0605 1.26438 -161.325 0.429016 178.497
lowerback -3.291 2.11375 -4.25555
upperback -1.07205 3.04064 -1.55185
thorax 0.607165 1.55218 0.899017
lowerneck -43.2292 -2.36239 -1.34303
upperneck 37.2577 -5.44586 3.82902
head 22.0416 -1.70877 0.637498
rclavicle 2.6339e-015 9.93923e-016
rhumerus -25.5595 14.2477 -92.8825
rradius 64.3467
rwrist 17.6377
rhand -2.7411 -5.57124
rfingers 7.12502
rthumb 22.9624 -34.2237
lclavicle 2.6339e-015 9.93923e-016
lhumerus -38.4428 -28.4115 92.5415
lradius 66.7549
lwrist -23.6033
lhand -1.74905 4.88516
lfingers 7.12502
lthumb 23.9141 33.4161
rfemur -16.1184 9.40739 21.9665
rtibia 34.3146
rfoot -32.5438 -28.3714
rtoes -13.8176
lfemur -28.1343 -6.84468 -23.6521
ltibia 50.4033
lfoot -5.721 34.1058
ltoes -9.98145
304
root 1.89892 15.036 1.16111 -161.307 0.372333 178.452
lowerback -3.33572 2.08983 -4.41404
upperback -1.07848 3.0212 -1.60752
thorax 0.62138 1.54417 0.931179
lowerneck -43.2236 -2.5116 -1.4346
upperneck 37.0637 -5.71082 4.08932
head 21.9456 -1.77087 0.715856
rclavicle -8.94531e-016 1.74931e-014
rhumerus -25.9066 14.5287 -92.9567
rradius 65.1879
rwrist 17.5106
rhand -2.87154 -5.44946
rfingers 7.12502
rthumb 22.8372 -34.1174
lclavicle -8.94531e-016 1.74931e-014
lhumerus -38.997 -29.2706 92.5672
lradius 67.6641
lwrist -23.2442
lhand -1.83909 4.75728
lfingers 7.12502
lthumb 23.8277 33.2995
rfemur -15.802 9.49212 21.975
rtibia 34.5876
rfoot -32.3289 -28.4544
rtoes -13.5295
lfemur -27.7937 -6.65022 -23.7958
ltibia 50.6148
lfoot -5.87284 34.0082
ltoes -10.4235
